<svg xmlns="http://www.w3.org/2000/svg" viewBox="0 0 512 512" role="img" aria-label="Elementera Coast orbit icon">
  <defs>
    <radialGradient id="bg" cx="35%" cy="25%" r="75%">
      <stop offset="0" stop-color="#16456e"/>
      <stop offset="0.55" stop-color="#06152a"/>
      <stop offset="1" stop-color="#020617"/>
    </radialGradient>
    <radialGradient id="gold" cx="35%" cy="35%" r="65%">
      <stop offset="0" stop-color="#ffe5aa"/>
      <stop offset="0.48" stop-color="#f4c86a"/>
      <stop offset="1" stop-color="#8f6327"/>
    </radialGradient>
  </defs>
  <rect width="512" height="512" rx="116" fill="url(#bg)"/>
  <circle cx="256" cy="256" r="154" fill="none" stroke="#6abcdc" stroke-width="6" opacity="0.35" stroke-dasharray="18 22"/>
  <path d="M256 86 373 154v136L256 426 139 290V154Z M256 86v114 M373 154l-82 46 M373 290l-82-34 M256 426V256 M139 290l82-34 M139 154l82 46 M221 200h70v56h-70Z" fill="none" stroke="#ffe5aa" stroke-width="12" stroke-linecap="round" stroke-linejoin="round"/>
  <g fill="url(#gold)">
    <circle cx="256" cy="86" r="18"/>
    <circle cx="373" cy="154" r="18"/>
    <circle cx="373" cy="290" r="18"/>
    <circle cx="256" cy="426" r="18"/>
    <circle cx="139" cy="290" r="18"/>
    <circle cx="139" cy="154" r="18"/>
    <circle cx="221" cy="200" r="13"/>
    <circle cx="291" cy="200" r="13"/>
    <circle cx="291" cy="256" r="13"/>
    <circle cx="221" cy="256" r="13"/>
  </g>
</svg>