<svg viewBox="0 0 128 154" xmlns="http://www.w3.org/2000/svg"><g fill="none" stroke="currentColor" stroke-width="8" stroke-linecap="round" stroke-linejoin="round"><path d="M24 67 L26 28 C26 18 32 15 41 20 C49 25 56 34 60 47"/><path d="M104 67 L102 28 C102 18 96 15 87 20 C79 25 72 34 68 47"/></g><path d="M20 70 C34 56 49 48 64 44 C79 48 94 56 108 70 L114 80 L108 96 C109 105 101 112 90 118 C81 122 72 124 64 124 C56 124 47 122 38 118 C27 112 19 105 20 96 L14 80 Z" fill="transparent"/><g fill="none" stroke="currentColor" stroke-width="8" stroke-linecap="round" stroke-linejoin="round"><path d="M20 70 C34 56 49 48 64 44 C79 48 94 56 108 70 L114 80 L108 96 C109 105 101 112 90 118 C81 122 72 124 64 124 C56 124 47 122 38 118 C27 112 19 105 20 96 L14 80 Z"/><path d="M34 87 C40 84 47 84 51 88"/><path d="M94 87 C88 84 81 84 77 88"/><path d="M64 124 C64 131 61 137 57 143"/><path d="M64 124 C64 131 67 137 71 143"/></g></svg>