<svg viewBox="0 0 128 128" xmlns="http://www.w3.org/2000/svg"><g fill="none" stroke="currentColor" stroke-width="7" stroke-linecap="round" stroke-linejoin="round"><path d="M22 58 C18 45 22 30 34 27 C45 24 55 31 64 41 C73 31 83 24 94 27 C106 30 110 45 106 58 L113 58 C113 67 108 75 99 80 L108 85 L97 92 L102 100 L82 100 C76 106 70 109 64 109 C58 109 52 106 46 100 L26 100 L31 92 L20 85 L29 80 C20 75 15 67 15 58 Z"/><path d="M35 39 C41 37 49 42 52 50 C49 57 42 60 35 56 C31 50 31 43 35 39 Z" fill="currentColor" stroke="none"/><path d="M93 39 C87 37 79 42 76 50 C79 57 86 60 93 56 C97 50 97 43 93 39 Z" fill="currentColor" stroke="none"/><path d="M39 70 C45 67 51 68 55 72"/><path d="M89 70 C83 67 77 68 73 72"/><path d="M55 84 C59 89 63 89 64 84"/><path d="M64 84 C65 89 69 89 73 84"/><path d="M60 91 C60 98 62 102 64 105"/><path d="M68 91 C68 98 66 102 64 105"/></g></svg>